<svg xmlns="http://www.w3.org/2000/svg" xmlns:xlink="http://www.w3.org/1999/xlink" fill="#000000" height="15px" width="15px" version="1.1" id="Plus_1" viewBox="0 0 1000 1000" enable-background="new 0 0 1000 1000" xml:space="preserve">
    <path d="M907.3,416c46.5,0,82.7,38.8,82.7,85.3c0,46.5-36.2,85.3-82.7,85.3H586.6v320.6c0,46.5-38.8,82.7-85.3,82.7c-46.5,0-85.3-36.2-85.3-82.7V586.6H95.3c-46.5,0-85.3-38.8-85.3-85.3c0-46.5,38.8-85.3,85.3-85.3H416V95.3c0-46.5,38.8-85.3,85.3-85.3c46.5,0,85.3,38.8,85.3,85.3V416H907.3z"/>
</svg>